# xmcd
#
# Track frame offsets:
#	150
#	17538
#	30725
#	48002
#	62012
#	74395
#	92117
#	111878
#	126447
#	144811
#	161077
#	181206
#	194817
#	208875
#
# Disc length: 2961 seconds
#
# Revision: 2
# Processed by: cddbd v1.5PL3 Copyright (c) Steve Scherf et al.
# Submitted via: EasyCDDAExtractor 5.1.0
#
DISCID=c90b8f0e
DTITLE=Ilse de lange - World of hurt
DYEAR=1900
DGENRE=Blues
TTITLE0=Flying  Blind
TTITLE1=Lonely Too
TTITLE2=Just Like The Moon
TTITLE3=What Does Your Heart Say Now
TTITLE4=I'd Be Yours
TTITLE5=World Of Hurt
TTITLE6=All The Woman You'll Ever Need
TTITLE7=If You Had The Heart
TTITLE8=Flying Solo
TTITLE9=Old Tears
TTITLE10=I'm Not So Tough
TTITLE11=When We Don't Talk
TTITLE12=Tap Dancing On  The Highwire
TTITLE13=You Are The Dream
EXTD=
EXTT0=
EXTT1=
EXTT2=
EXTT3=
EXTT4=
EXTT5=
EXTT6=
EXTT7=
EXTT8=
EXTT9=
EXTT10=
EXTT11=
EXTT12=
EXTT13=
PLAYORDER=
